<?xml version="1.0" standalone="no"?>
<!DOCTYPE svg PUBLIC "-//W3C//DTD SVG 20010904//EN"
 "http://www.w3.org/TR/2001/REC-SVG-20010904/DTD/svg10.dtd">
<svg version="1.0" xmlns="http://www.w3.org/2000/svg"
 width="128.000000pt" height="128.000000pt" viewBox="0 0 128.000000 128.000000"
 preserveAspectRatio="xMidYMid meet">
<metadata>
Created by potrace 1.14, written by Peter Selinger 2001-2017
</metadata>
<g transform="translate(0.000000,128.000000) scale(0.100000,-0.100000)"
fill="#000000" stroke="none">
<path d="M385 1080 c3 -5 10 -10 16 -10 5 0 9 5 9 10 0 6 -7 10 -16 10 -8 0
-12 -4 -9 -10z"/>
<path d="M820 1079 c0 -5 5 -7 10 -4 6 3 10 8 10 11 0 2 -4 4 -10 4 -5 0 -10
-5 -10 -11z"/>
<path d="M1250 1080 c0 -5 5 -10 10 -10 6 0 10 5 10 10 0 6 -4 10 -10 10 -5 0
-10 -4 -10 -10z"/>
<path d="M666 875 c-4 -11 -20 -15 -55 -15 -34 0 -51 -4 -55 -15 -3 -8 -15
-15 -26 -15 -11 0 -20 -4 -20 -9 0 -5 -9 -11 -20 -14 -14 -3 -20 -14 -20 -31
0 -14 -4 -26 -10 -26 -5 0 -10 -25 -10 -55 0 -30 5 -55 10 -55 6 0 10 -11 10
-25 0 -16 6 -25 15 -25 8 0 15 -7 15 -15 0 -8 -7 -15 -15 -15 -9 0 -15 -9 -15
-25 0 -14 -4 -25 -10 -25 -15 0 -12 -49 4 -66 8 -8 26 -14 40 -14 16 0 26 -6
26 -15 0 -8 -4 -15 -10 -15 -5 0 -10 -7 -10 -15 0 -8 -7 -15 -15 -15 -21 0
-19 -20 3 -21 10 0 12 -3 5 -6 -7 -2 -13 -11 -13 -19 0 -8 -10 -14 -25 -14
-16 0 -25 6 -25 15 0 10 -10 15 -30 15 -20 0 -30 -5 -30 -15 0 -11 -11 -15
-40 -15 -22 0 -40 -4 -40 -10 0 -5 -25 -10 -55 -10 -30 0 -55 5 -55 10 0 6
-18 10 -40 10 -29 0 -40 4 -40 15 0 9 -9 15 -25 15 -16 0 -25 -6 -25 -15 0
-22 -47 -19 -53 2 -3 10 -5 3 -6 -14 -1 -23 4 -33 13 -33 8 0 18 -9 21 -20 9
-28 25 -25 25 6 0 22 4 25 28 22 19 -2 28 -9 30 -25 3 -22 22 -33 22 -13 0 6
14 10 30 10 28 0 30 -2 30 -40 0 -22 5 -40 10 -40 6 0 10 14 10 31 0 27 3 30
28 27 21 -2 28 -9 30 -30 2 -16 7 -28 12 -28 4 0 4 16 0 34 -9 40 -5 46 27 46
13 0 22 4 19 9 -3 5 13 11 36 14 24 3 44 10 46 16 4 11 52 -36 52 -50 0 -19
19 -7 22 13 5 34 50 32 59 -2 4 -14 7 -19 8 -12 1 7 15 12 36 12 34 0 35 -1
35 -40 0 -22 5 -40 10 -40 6 0 10 14 10 31 0 28 3 31 25 27 14 -3 30 1 36 8 6
8 20 14 30 14 11 0 19 4 19 9 0 4 19 11 42 14 24 3 44 10 46 16 4 11 52 -36
52 -50 0 -5 5 -9 10 -9 6 0 10 12 10 26 0 22 4 25 28 22 19 -2 28 -9 30 -25 3
-22 22 -33 22 -13 0 6 14 10 30 10 28 0 30 -2 30 -40 0 -22 5 -40 10 -40 6 0
10 14 10 30 0 19 5 30 14 30 30 0 46 -13 46 -36 0 -13 5 -24 10 -24 6 0 10 11
10 24 0 14 -4 28 -10 31 -20 12 -9 25 20 25 17 0 30 4 30 9 0 5 18 11 40 15
34 5 40 10 40 31 0 16 -6 25 -15 25 -8 0 -15 -7 -15 -15 0 -11 -12 -15 -45
-15 -25 0 -45 -4 -45 -10 0 -5 -22 -10 -50 -10 -27 0 -50 5 -50 10 0 6 -18 10
-40 10 -29 0 -40 4 -40 15 0 10 -10 15 -30 15 -20 0 -30 -5 -30 -15 0 -9 -9
-15 -25 -15 -16 0 -25 6 -25 15 0 10 -10 15 -30 15 -20 0 -30 -5 -30 -15 0
-11 -11 -15 -40 -15 -22 0 -40 -4 -40 -10 0 -6 -23 -9 -52 -8 l-53 2 48 3 c26
2 47 8 47 14 0 5 9 9 20 9 11 0 29 9 40 20 l20 20 -25 24 c-32 30 -32 46 1 46
14 0 32 6 40 14 16 17 19 66 4 66 -5 0 -10 11 -10 25 0 16 -6 25 -15 25 -8 0
-15 7 -15 15 0 8 7 15 15 15 9 0 15 9 15 25 0 15 6 25 15 25 11 0 13 8 9 30
-5 23 -3 30 10 30 25 0 19 38 -11 67 -19 17 -24 27 -15 30 14 5 17 33 3 33 -5
0 -11 9 -14 21 -5 17 -10 19 -41 13 -29 -5 -36 -3 -36 10 0 21 -56 22 -64 1z
m34 -140 c0 -9 9 -15 21 -15 22 0 49 -22 49 -39 0 -6 7 -11 15 -11 8 0 15 -7
15 -15 0 -8 -7 -15 -15 -15 -8 0 -15 -6 -15 -13 0 -30 -26 -67 -46 -67 -12 0
-25 -7 -28 -15 -7 -20 -105 -18 -113 2 -3 7 -13 13 -23 13 -10 0 -20 8 -24 18
-8 24 -29 56 -43 65 -18 11 -16 27 2 27 9 0 15 9 15 25 0 20 5 25 25 25 16 0
25 6 25 15 0 12 14 15 70 15 56 0 70 -3 70 -15z m-170 -250 c0 -20 -5 -25 -25
-25 -20 0 -25 5 -25 25 0 20 5 25 25 25 20 0 25 -5 25 -25z m270 0 c0 -20 -5
-25 -25 -25 -20 0 -25 5 -25 25 0 20 5 25 25 25 20 0 25 -5 25 -25z m-132 -17
c3 -13 -3 -18 -22 -18 -27 0 -41 14 -31 31 10 16 49 6 53 -13z"/>
<path d="M560 645 c0 -16 6 -25 15 -25 9 0 15 9 15 25 0 16 -6 25 -15 25 -9 0
-15 -9 -15 -25z"/>
<path d="M700 645 c0 -14 5 -25 10 -25 6 0 10 11 10 25 0 14 -4 25 -10 25 -5
0 -10 -11 -10 -25z"/>
<path d="M385 650 c3 -5 10 -10 16 -10 5 0 9 5 9 10 0 6 -7 10 -16 10 -8 0
-12 -4 -9 -10z"/>
<path d="M1250 650 c0 -5 5 -10 10 -10 6 0 10 5 10 10 0 6 -4 10 -10 10 -5 0
-10 -4 -10 -10z"/>
<path d="M710 211 c0 -17 5 -31 10 -31 6 0 10 11 10 24 0 14 -4 28 -10 31 -6
4 -10 -7 -10 -24z"/>
<path d="M90 220 c0 -5 5 -10 10 -10 6 0 10 5 10 10 0 6 -4 10 -10 10 -5 0
-10 -4 -10 -10z"/>
<path d="M390 220 c0 -5 5 -10 10 -10 6 0 10 5 10 10 0 6 -4 10 -10 10 -5 0
-10 -4 -10 -10z"/>
<path d="M520 220 c0 -5 5 -10 10 -10 6 0 10 5 10 10 0 6 -4 10 -10 10 -5 0
-10 -4 -10 -10z"/>
<path d="M820 220 c0 -5 5 -10 10 -10 6 0 10 5 10 10 0 6 -4 10 -10 10 -5 0
-10 -4 -10 -10z"/>
<path d="M950 220 c0 -5 5 -10 10 -10 6 0 10 5 10 10 0 6 -4 10 -10 10 -5 0
-10 -4 -10 -10z"/>
<path d="M1250 220 c0 -5 5 -10 10 -10 6 0 10 5 10 10 0 6 -4 10 -10 10 -5 0
-10 -4 -10 -10z"/>
</g>
</svg>
